%TF.GenerationSoftware,KiCad,Pcbnew,8.0.5*%
%TF.CreationDate,2025-03-26T13:41:20+00:00*%
%TF.ProjectId,PCB_1001_00,5043425f-3130-4303-915f-30302e6b6963,rev?*%
%TF.SameCoordinates,Original*%
%TF.FileFunction,Drillmap*%
%TF.FilePolarity,Positive*%
%FSLAX45Y45*%
G04 Gerber Fmt 4.5, Leading zero omitted, Abs format (unit mm)*
G04 Created by KiCad (PCBNEW 8.0.5) date 2025-03-26 13:41:20*
%MOMM*%
%LPD*%
G01*
G04 APERTURE LIST*
%ADD10C,0.050000*%
%ADD11C,0.200000*%
G04 APERTURE END LIST*
D10*
X12369800Y-7848600D02*
X16129000Y-7848600D01*
X16129000Y-10922000D01*
X12369800Y-10922000D01*
X12369800Y-7848600D01*
D11*
X12628077Y-11235984D02*
X12628077Y-11035984D01*
X12628077Y-11035984D02*
X12675696Y-11035984D01*
X12675696Y-11035984D02*
X12704267Y-11045508D01*
X12704267Y-11045508D02*
X12723315Y-11064555D01*
X12723315Y-11064555D02*
X12732839Y-11083603D01*
X12732839Y-11083603D02*
X12742362Y-11121698D01*
X12742362Y-11121698D02*
X12742362Y-11150270D01*
X12742362Y-11150270D02*
X12732839Y-11188365D01*
X12732839Y-11188365D02*
X12723315Y-11207412D01*
X12723315Y-11207412D02*
X12704267Y-11226460D01*
X12704267Y-11226460D02*
X12675696Y-11235984D01*
X12675696Y-11235984D02*
X12628077Y-11235984D01*
X12828077Y-11235984D02*
X12828077Y-11102650D01*
X12828077Y-11140746D02*
X12837601Y-11121698D01*
X12837601Y-11121698D02*
X12847124Y-11112174D01*
X12847124Y-11112174D02*
X12866172Y-11102650D01*
X12866172Y-11102650D02*
X12885220Y-11102650D01*
X12951886Y-11235984D02*
X12951886Y-11102650D01*
X12951886Y-11035984D02*
X12942362Y-11045508D01*
X12942362Y-11045508D02*
X12951886Y-11055031D01*
X12951886Y-11055031D02*
X12961410Y-11045508D01*
X12961410Y-11045508D02*
X12951886Y-11035984D01*
X12951886Y-11035984D02*
X12951886Y-11055031D01*
X13075696Y-11235984D02*
X13056648Y-11226460D01*
X13056648Y-11226460D02*
X13047124Y-11207412D01*
X13047124Y-11207412D02*
X13047124Y-11035984D01*
X13180458Y-11235984D02*
X13161410Y-11226460D01*
X13161410Y-11226460D02*
X13151886Y-11207412D01*
X13151886Y-11207412D02*
X13151886Y-11035984D01*
X13409029Y-11235984D02*
X13409029Y-11035984D01*
X13409029Y-11035984D02*
X13475696Y-11178841D01*
X13475696Y-11178841D02*
X13542362Y-11035984D01*
X13542362Y-11035984D02*
X13542362Y-11235984D01*
X13723315Y-11235984D02*
X13723315Y-11131222D01*
X13723315Y-11131222D02*
X13713791Y-11112174D01*
X13713791Y-11112174D02*
X13694743Y-11102650D01*
X13694743Y-11102650D02*
X13656648Y-11102650D01*
X13656648Y-11102650D02*
X13637601Y-11112174D01*
X13723315Y-11226460D02*
X13704267Y-11235984D01*
X13704267Y-11235984D02*
X13656648Y-11235984D01*
X13656648Y-11235984D02*
X13637601Y-11226460D01*
X13637601Y-11226460D02*
X13628077Y-11207412D01*
X13628077Y-11207412D02*
X13628077Y-11188365D01*
X13628077Y-11188365D02*
X13637601Y-11169317D01*
X13637601Y-11169317D02*
X13656648Y-11159793D01*
X13656648Y-11159793D02*
X13704267Y-11159793D01*
X13704267Y-11159793D02*
X13723315Y-11150270D01*
X13818553Y-11102650D02*
X13818553Y-11302650D01*
X13818553Y-11112174D02*
X13837601Y-11102650D01*
X13837601Y-11102650D02*
X13875696Y-11102650D01*
X13875696Y-11102650D02*
X13894743Y-11112174D01*
X13894743Y-11112174D02*
X13904267Y-11121698D01*
X13904267Y-11121698D02*
X13913791Y-11140746D01*
X13913791Y-11140746D02*
X13913791Y-11197888D01*
X13913791Y-11197888D02*
X13904267Y-11216936D01*
X13904267Y-11216936D02*
X13894743Y-11226460D01*
X13894743Y-11226460D02*
X13875696Y-11235984D01*
X13875696Y-11235984D02*
X13837601Y-11235984D01*
X13837601Y-11235984D02*
X13818553Y-11226460D01*
X13999505Y-11216936D02*
X14009029Y-11226460D01*
X14009029Y-11226460D02*
X13999505Y-11235984D01*
X13999505Y-11235984D02*
X13989982Y-11226460D01*
X13989982Y-11226460D02*
X13999505Y-11216936D01*
X13999505Y-11216936D02*
X13999505Y-11235984D01*
X13999505Y-11112174D02*
X14009029Y-11121698D01*
X14009029Y-11121698D02*
X13999505Y-11131222D01*
X13999505Y-11131222D02*
X13989982Y-11121698D01*
X13989982Y-11121698D02*
X13999505Y-11112174D01*
X13999505Y-11112174D02*
X13999505Y-11131222D01*
M02*
