%TF.GenerationSoftware,KiCad,Pcbnew,8.0.6*%
%TF.CreationDate,2025-03-30T13:26:50+01:00*%
%TF.ProjectId,PCB_1001_00,5043425f-3130-4303-915f-30302e6b6963,01*%
%TF.SameCoordinates,Original*%
%TF.FileFunction,Legend,Top*%
%TF.FilePolarity,Positive*%
%FSLAX46Y46*%
G04 Gerber Fmt 4.6, Leading zero omitted, Abs format (unit mm)*
G04 Created by KiCad (PCBNEW 8.0.6) date 2025-03-30 13:26:50*
%MOMM*%
%LPD*%
G01*
G04 APERTURE LIST*
%ADD10C,0.200000*%
%ADD11C,0.150000*%
%ADD12C,0.120000*%
G04 APERTURE END LIST*
D10*
X125536028Y-93999279D02*
X124036028Y-93999279D01*
X124036028Y-93999279D02*
X124036028Y-93427850D01*
X124036028Y-93427850D02*
X124107457Y-93284993D01*
X124107457Y-93284993D02*
X124178885Y-93213564D01*
X124178885Y-93213564D02*
X124321742Y-93142136D01*
X124321742Y-93142136D02*
X124536028Y-93142136D01*
X124536028Y-93142136D02*
X124678885Y-93213564D01*
X124678885Y-93213564D02*
X124750314Y-93284993D01*
X124750314Y-93284993D02*
X124821742Y-93427850D01*
X124821742Y-93427850D02*
X124821742Y-93999279D01*
X125393171Y-91642136D02*
X125464600Y-91713564D01*
X125464600Y-91713564D02*
X125536028Y-91927850D01*
X125536028Y-91927850D02*
X125536028Y-92070707D01*
X125536028Y-92070707D02*
X125464600Y-92284993D01*
X125464600Y-92284993D02*
X125321742Y-92427850D01*
X125321742Y-92427850D02*
X125178885Y-92499279D01*
X125178885Y-92499279D02*
X124893171Y-92570707D01*
X124893171Y-92570707D02*
X124678885Y-92570707D01*
X124678885Y-92570707D02*
X124393171Y-92499279D01*
X124393171Y-92499279D02*
X124250314Y-92427850D01*
X124250314Y-92427850D02*
X124107457Y-92284993D01*
X124107457Y-92284993D02*
X124036028Y-92070707D01*
X124036028Y-92070707D02*
X124036028Y-91927850D01*
X124036028Y-91927850D02*
X124107457Y-91713564D01*
X124107457Y-91713564D02*
X124178885Y-91642136D01*
X124750314Y-90499279D02*
X124821742Y-90284993D01*
X124821742Y-90284993D02*
X124893171Y-90213564D01*
X124893171Y-90213564D02*
X125036028Y-90142136D01*
X125036028Y-90142136D02*
X125250314Y-90142136D01*
X125250314Y-90142136D02*
X125393171Y-90213564D01*
X125393171Y-90213564D02*
X125464600Y-90284993D01*
X125464600Y-90284993D02*
X125536028Y-90427850D01*
X125536028Y-90427850D02*
X125536028Y-90999279D01*
X125536028Y-90999279D02*
X124036028Y-90999279D01*
X124036028Y-90999279D02*
X124036028Y-90499279D01*
X124036028Y-90499279D02*
X124107457Y-90356422D01*
X124107457Y-90356422D02*
X124178885Y-90284993D01*
X124178885Y-90284993D02*
X124321742Y-90213564D01*
X124321742Y-90213564D02*
X124464600Y-90213564D01*
X124464600Y-90213564D02*
X124607457Y-90284993D01*
X124607457Y-90284993D02*
X124678885Y-90356422D01*
X124678885Y-90356422D02*
X124750314Y-90499279D01*
X124750314Y-90499279D02*
X124750314Y-90999279D01*
X125678885Y-89856422D02*
X125678885Y-88713564D01*
X125536028Y-87570707D02*
X125536028Y-88427850D01*
X125536028Y-87999279D02*
X124036028Y-87999279D01*
X124036028Y-87999279D02*
X124250314Y-88142136D01*
X124250314Y-88142136D02*
X124393171Y-88284993D01*
X124393171Y-88284993D02*
X124464600Y-88427850D01*
X124036028Y-86642136D02*
X124036028Y-86499279D01*
X124036028Y-86499279D02*
X124107457Y-86356422D01*
X124107457Y-86356422D02*
X124178885Y-86284994D01*
X124178885Y-86284994D02*
X124321742Y-86213565D01*
X124321742Y-86213565D02*
X124607457Y-86142136D01*
X124607457Y-86142136D02*
X124964600Y-86142136D01*
X124964600Y-86142136D02*
X125250314Y-86213565D01*
X125250314Y-86213565D02*
X125393171Y-86284994D01*
X125393171Y-86284994D02*
X125464600Y-86356422D01*
X125464600Y-86356422D02*
X125536028Y-86499279D01*
X125536028Y-86499279D02*
X125536028Y-86642136D01*
X125536028Y-86642136D02*
X125464600Y-86784994D01*
X125464600Y-86784994D02*
X125393171Y-86856422D01*
X125393171Y-86856422D02*
X125250314Y-86927851D01*
X125250314Y-86927851D02*
X124964600Y-86999279D01*
X124964600Y-86999279D02*
X124607457Y-86999279D01*
X124607457Y-86999279D02*
X124321742Y-86927851D01*
X124321742Y-86927851D02*
X124178885Y-86856422D01*
X124178885Y-86856422D02*
X124107457Y-86784994D01*
X124107457Y-86784994D02*
X124036028Y-86642136D01*
X124036028Y-85213565D02*
X124036028Y-85070708D01*
X124036028Y-85070708D02*
X124107457Y-84927851D01*
X124107457Y-84927851D02*
X124178885Y-84856423D01*
X124178885Y-84856423D02*
X124321742Y-84784994D01*
X124321742Y-84784994D02*
X124607457Y-84713565D01*
X124607457Y-84713565D02*
X124964600Y-84713565D01*
X124964600Y-84713565D02*
X125250314Y-84784994D01*
X125250314Y-84784994D02*
X125393171Y-84856423D01*
X125393171Y-84856423D02*
X125464600Y-84927851D01*
X125464600Y-84927851D02*
X125536028Y-85070708D01*
X125536028Y-85070708D02*
X125536028Y-85213565D01*
X125536028Y-85213565D02*
X125464600Y-85356423D01*
X125464600Y-85356423D02*
X125393171Y-85427851D01*
X125393171Y-85427851D02*
X125250314Y-85499280D01*
X125250314Y-85499280D02*
X124964600Y-85570708D01*
X124964600Y-85570708D02*
X124607457Y-85570708D01*
X124607457Y-85570708D02*
X124321742Y-85499280D01*
X124321742Y-85499280D02*
X124178885Y-85427851D01*
X124178885Y-85427851D02*
X124107457Y-85356423D01*
X124107457Y-85356423D02*
X124036028Y-85213565D01*
X125536028Y-83284994D02*
X125536028Y-84142137D01*
X125536028Y-83713566D02*
X124036028Y-83713566D01*
X124036028Y-83713566D02*
X124250314Y-83856423D01*
X124250314Y-83856423D02*
X124393171Y-83999280D01*
X124393171Y-83999280D02*
X124464600Y-84142137D01*
X125678885Y-82999281D02*
X125678885Y-81856423D01*
X124036028Y-81213566D02*
X124036028Y-81070709D01*
X124036028Y-81070709D02*
X124107457Y-80927852D01*
X124107457Y-80927852D02*
X124178885Y-80856424D01*
X124178885Y-80856424D02*
X124321742Y-80784995D01*
X124321742Y-80784995D02*
X124607457Y-80713566D01*
X124607457Y-80713566D02*
X124964600Y-80713566D01*
X124964600Y-80713566D02*
X125250314Y-80784995D01*
X125250314Y-80784995D02*
X125393171Y-80856424D01*
X125393171Y-80856424D02*
X125464600Y-80927852D01*
X125464600Y-80927852D02*
X125536028Y-81070709D01*
X125536028Y-81070709D02*
X125536028Y-81213566D01*
X125536028Y-81213566D02*
X125464600Y-81356424D01*
X125464600Y-81356424D02*
X125393171Y-81427852D01*
X125393171Y-81427852D02*
X125250314Y-81499281D01*
X125250314Y-81499281D02*
X124964600Y-81570709D01*
X124964600Y-81570709D02*
X124607457Y-81570709D01*
X124607457Y-81570709D02*
X124321742Y-81499281D01*
X124321742Y-81499281D02*
X124178885Y-81427852D01*
X124178885Y-81427852D02*
X124107457Y-81356424D01*
X124107457Y-81356424D02*
X124036028Y-81213566D01*
X125536028Y-79284995D02*
X125536028Y-80142138D01*
X125536028Y-79713567D02*
X124036028Y-79713567D01*
X124036028Y-79713567D02*
X124250314Y-79856424D01*
X124250314Y-79856424D02*
X124393171Y-79999281D01*
X124393171Y-79999281D02*
X124464600Y-80142138D01*
D11*
X145234819Y-109727094D02*
X144234819Y-109727094D01*
X144234819Y-109727094D02*
X144234819Y-109488999D01*
X144234819Y-109488999D02*
X144282438Y-109346142D01*
X144282438Y-109346142D02*
X144377676Y-109250904D01*
X144377676Y-109250904D02*
X144472914Y-109203285D01*
X144472914Y-109203285D02*
X144663390Y-109155666D01*
X144663390Y-109155666D02*
X144806247Y-109155666D01*
X144806247Y-109155666D02*
X144996723Y-109203285D01*
X144996723Y-109203285D02*
X145091961Y-109250904D01*
X145091961Y-109250904D02*
X145187200Y-109346142D01*
X145187200Y-109346142D02*
X145234819Y-109488999D01*
X145234819Y-109488999D02*
X145234819Y-109727094D01*
X144330057Y-108774713D02*
X144282438Y-108727094D01*
X144282438Y-108727094D02*
X144234819Y-108631856D01*
X144234819Y-108631856D02*
X144234819Y-108393761D01*
X144234819Y-108393761D02*
X144282438Y-108298523D01*
X144282438Y-108298523D02*
X144330057Y-108250904D01*
X144330057Y-108250904D02*
X144425295Y-108203285D01*
X144425295Y-108203285D02*
X144520533Y-108203285D01*
X144520533Y-108203285D02*
X144663390Y-108250904D01*
X144663390Y-108250904D02*
X145234819Y-108822332D01*
X145234819Y-108822332D02*
X145234819Y-108203285D01*
X141668667Y-102563200D02*
X141811524Y-102610819D01*
X141811524Y-102610819D02*
X142049619Y-102610819D01*
X142049619Y-102610819D02*
X142144857Y-102563200D01*
X142144857Y-102563200D02*
X142192476Y-102515580D01*
X142192476Y-102515580D02*
X142240095Y-102420342D01*
X142240095Y-102420342D02*
X142240095Y-102325104D01*
X142240095Y-102325104D02*
X142192476Y-102229866D01*
X142192476Y-102229866D02*
X142144857Y-102182247D01*
X142144857Y-102182247D02*
X142049619Y-102134628D01*
X142049619Y-102134628D02*
X141859143Y-102087009D01*
X141859143Y-102087009D02*
X141763905Y-102039390D01*
X141763905Y-102039390D02*
X141716286Y-101991771D01*
X141716286Y-101991771D02*
X141668667Y-101896533D01*
X141668667Y-101896533D02*
X141668667Y-101801295D01*
X141668667Y-101801295D02*
X141716286Y-101706057D01*
X141716286Y-101706057D02*
X141763905Y-101658438D01*
X141763905Y-101658438D02*
X141859143Y-101610819D01*
X141859143Y-101610819D02*
X142097238Y-101610819D01*
X142097238Y-101610819D02*
X142240095Y-101658438D01*
X142573429Y-101610819D02*
X142811524Y-102610819D01*
X142811524Y-102610819D02*
X143002000Y-101896533D01*
X143002000Y-101896533D02*
X143192476Y-102610819D01*
X143192476Y-102610819D02*
X143430572Y-101610819D01*
X143763905Y-101706057D02*
X143811524Y-101658438D01*
X143811524Y-101658438D02*
X143906762Y-101610819D01*
X143906762Y-101610819D02*
X144144857Y-101610819D01*
X144144857Y-101610819D02*
X144240095Y-101658438D01*
X144240095Y-101658438D02*
X144287714Y-101706057D01*
X144287714Y-101706057D02*
X144335333Y-101801295D01*
X144335333Y-101801295D02*
X144335333Y-101896533D01*
X144335333Y-101896533D02*
X144287714Y-102039390D01*
X144287714Y-102039390D02*
X143716286Y-102610819D01*
X143716286Y-102610819D02*
X144335333Y-102610819D01*
X154981819Y-109704094D02*
X153981819Y-109704094D01*
X153981819Y-109704094D02*
X153981819Y-109465999D01*
X153981819Y-109465999D02*
X154029438Y-109323142D01*
X154029438Y-109323142D02*
X154124676Y-109227904D01*
X154124676Y-109227904D02*
X154219914Y-109180285D01*
X154219914Y-109180285D02*
X154410390Y-109132666D01*
X154410390Y-109132666D02*
X154553247Y-109132666D01*
X154553247Y-109132666D02*
X154743723Y-109180285D01*
X154743723Y-109180285D02*
X154838961Y-109227904D01*
X154838961Y-109227904D02*
X154934200Y-109323142D01*
X154934200Y-109323142D02*
X154981819Y-109465999D01*
X154981819Y-109465999D02*
X154981819Y-109704094D01*
X153981819Y-108799332D02*
X153981819Y-108180285D01*
X153981819Y-108180285D02*
X154362771Y-108513618D01*
X154362771Y-108513618D02*
X154362771Y-108370761D01*
X154362771Y-108370761D02*
X154410390Y-108275523D01*
X154410390Y-108275523D02*
X154458009Y-108227904D01*
X154458009Y-108227904D02*
X154553247Y-108180285D01*
X154553247Y-108180285D02*
X154791342Y-108180285D01*
X154791342Y-108180285D02*
X154886580Y-108227904D01*
X154886580Y-108227904D02*
X154934200Y-108275523D01*
X154934200Y-108275523D02*
X154981819Y-108370761D01*
X154981819Y-108370761D02*
X154981819Y-108656475D01*
X154981819Y-108656475D02*
X154934200Y-108751713D01*
X154934200Y-108751713D02*
X154886580Y-108799332D01*
X134863819Y-109704094D02*
X133863819Y-109704094D01*
X133863819Y-109704094D02*
X133863819Y-109465999D01*
X133863819Y-109465999D02*
X133911438Y-109323142D01*
X133911438Y-109323142D02*
X134006676Y-109227904D01*
X134006676Y-109227904D02*
X134101914Y-109180285D01*
X134101914Y-109180285D02*
X134292390Y-109132666D01*
X134292390Y-109132666D02*
X134435247Y-109132666D01*
X134435247Y-109132666D02*
X134625723Y-109180285D01*
X134625723Y-109180285D02*
X134720961Y-109227904D01*
X134720961Y-109227904D02*
X134816200Y-109323142D01*
X134816200Y-109323142D02*
X134863819Y-109465999D01*
X134863819Y-109465999D02*
X134863819Y-109704094D01*
X134863819Y-108180285D02*
X134863819Y-108751713D01*
X134863819Y-108465999D02*
X133863819Y-108465999D01*
X133863819Y-108465999D02*
X134006676Y-108561237D01*
X134006676Y-108561237D02*
X134101914Y-108656475D01*
X134101914Y-108656475D02*
X134149533Y-108751713D01*
X151828667Y-102563200D02*
X151971524Y-102610819D01*
X151971524Y-102610819D02*
X152209619Y-102610819D01*
X152209619Y-102610819D02*
X152304857Y-102563200D01*
X152304857Y-102563200D02*
X152352476Y-102515580D01*
X152352476Y-102515580D02*
X152400095Y-102420342D01*
X152400095Y-102420342D02*
X152400095Y-102325104D01*
X152400095Y-102325104D02*
X152352476Y-102229866D01*
X152352476Y-102229866D02*
X152304857Y-102182247D01*
X152304857Y-102182247D02*
X152209619Y-102134628D01*
X152209619Y-102134628D02*
X152019143Y-102087009D01*
X152019143Y-102087009D02*
X151923905Y-102039390D01*
X151923905Y-102039390D02*
X151876286Y-101991771D01*
X151876286Y-101991771D02*
X151828667Y-101896533D01*
X151828667Y-101896533D02*
X151828667Y-101801295D01*
X151828667Y-101801295D02*
X151876286Y-101706057D01*
X151876286Y-101706057D02*
X151923905Y-101658438D01*
X151923905Y-101658438D02*
X152019143Y-101610819D01*
X152019143Y-101610819D02*
X152257238Y-101610819D01*
X152257238Y-101610819D02*
X152400095Y-101658438D01*
X152733429Y-101610819D02*
X152971524Y-102610819D01*
X152971524Y-102610819D02*
X153162000Y-101896533D01*
X153162000Y-101896533D02*
X153352476Y-102610819D01*
X153352476Y-102610819D02*
X153590572Y-101610819D01*
X153876286Y-101610819D02*
X154495333Y-101610819D01*
X154495333Y-101610819D02*
X154162000Y-101991771D01*
X154162000Y-101991771D02*
X154304857Y-101991771D01*
X154304857Y-101991771D02*
X154400095Y-102039390D01*
X154400095Y-102039390D02*
X154447714Y-102087009D01*
X154447714Y-102087009D02*
X154495333Y-102182247D01*
X154495333Y-102182247D02*
X154495333Y-102420342D01*
X154495333Y-102420342D02*
X154447714Y-102515580D01*
X154447714Y-102515580D02*
X154400095Y-102563200D01*
X154400095Y-102563200D02*
X154304857Y-102610819D01*
X154304857Y-102610819D02*
X154019143Y-102610819D01*
X154019143Y-102610819D02*
X153923905Y-102563200D01*
X153923905Y-102563200D02*
X153876286Y-102515580D01*
X127837285Y-85055009D02*
X127980142Y-85102628D01*
X127980142Y-85102628D02*
X128027761Y-85150247D01*
X128027761Y-85150247D02*
X128075380Y-85245485D01*
X128075380Y-85245485D02*
X128075380Y-85388342D01*
X128075380Y-85388342D02*
X128027761Y-85483580D01*
X128027761Y-85483580D02*
X127980142Y-85531200D01*
X127980142Y-85531200D02*
X127884904Y-85578819D01*
X127884904Y-85578819D02*
X127503952Y-85578819D01*
X127503952Y-85578819D02*
X127503952Y-84578819D01*
X127503952Y-84578819D02*
X127837285Y-84578819D01*
X127837285Y-84578819D02*
X127932523Y-84626438D01*
X127932523Y-84626438D02*
X127980142Y-84674057D01*
X127980142Y-84674057D02*
X128027761Y-84769295D01*
X128027761Y-84769295D02*
X128027761Y-84864533D01*
X128027761Y-84864533D02*
X127980142Y-84959771D01*
X127980142Y-84959771D02*
X127932523Y-85007390D01*
X127932523Y-85007390D02*
X127837285Y-85055009D01*
X127837285Y-85055009D02*
X127503952Y-85055009D01*
X128361095Y-84578819D02*
X128932523Y-84578819D01*
X128646809Y-85578819D02*
X128646809Y-84578819D01*
X129789666Y-85578819D02*
X129218238Y-85578819D01*
X129503952Y-85578819D02*
X129503952Y-84578819D01*
X129503952Y-84578819D02*
X129408714Y-84721676D01*
X129408714Y-84721676D02*
X129313476Y-84816914D01*
X129313476Y-84816914D02*
X129218238Y-84864533D01*
X140916819Y-109112666D02*
X140440628Y-109445999D01*
X140916819Y-109684094D02*
X139916819Y-109684094D01*
X139916819Y-109684094D02*
X139916819Y-109303142D01*
X139916819Y-109303142D02*
X139964438Y-109207904D01*
X139964438Y-109207904D02*
X140012057Y-109160285D01*
X140012057Y-109160285D02*
X140107295Y-109112666D01*
X140107295Y-109112666D02*
X140250152Y-109112666D01*
X140250152Y-109112666D02*
X140345390Y-109160285D01*
X140345390Y-109160285D02*
X140393009Y-109207904D01*
X140393009Y-109207904D02*
X140440628Y-109303142D01*
X140440628Y-109303142D02*
X140440628Y-109684094D01*
X140012057Y-108731713D02*
X139964438Y-108684094D01*
X139964438Y-108684094D02*
X139916819Y-108588856D01*
X139916819Y-108588856D02*
X139916819Y-108350761D01*
X139916819Y-108350761D02*
X139964438Y-108255523D01*
X139964438Y-108255523D02*
X140012057Y-108207904D01*
X140012057Y-108207904D02*
X140107295Y-108160285D01*
X140107295Y-108160285D02*
X140202533Y-108160285D01*
X140202533Y-108160285D02*
X140345390Y-108207904D01*
X140345390Y-108207904D02*
X140916819Y-108779332D01*
X140916819Y-108779332D02*
X140916819Y-108160285D01*
X150568819Y-109112666D02*
X150092628Y-109445999D01*
X150568819Y-109684094D02*
X149568819Y-109684094D01*
X149568819Y-109684094D02*
X149568819Y-109303142D01*
X149568819Y-109303142D02*
X149616438Y-109207904D01*
X149616438Y-109207904D02*
X149664057Y-109160285D01*
X149664057Y-109160285D02*
X149759295Y-109112666D01*
X149759295Y-109112666D02*
X149902152Y-109112666D01*
X149902152Y-109112666D02*
X149997390Y-109160285D01*
X149997390Y-109160285D02*
X150045009Y-109207904D01*
X150045009Y-109207904D02*
X150092628Y-109303142D01*
X150092628Y-109303142D02*
X150092628Y-109684094D01*
X149568819Y-108779332D02*
X149568819Y-108160285D01*
X149568819Y-108160285D02*
X149949771Y-108493618D01*
X149949771Y-108493618D02*
X149949771Y-108350761D01*
X149949771Y-108350761D02*
X149997390Y-108255523D01*
X149997390Y-108255523D02*
X150045009Y-108207904D01*
X150045009Y-108207904D02*
X150140247Y-108160285D01*
X150140247Y-108160285D02*
X150378342Y-108160285D01*
X150378342Y-108160285D02*
X150473580Y-108207904D01*
X150473580Y-108207904D02*
X150521200Y-108255523D01*
X150521200Y-108255523D02*
X150568819Y-108350761D01*
X150568819Y-108350761D02*
X150568819Y-108636475D01*
X150568819Y-108636475D02*
X150521200Y-108731713D01*
X150521200Y-108731713D02*
X150473580Y-108779332D01*
X130502819Y-109112666D02*
X130026628Y-109445999D01*
X130502819Y-109684094D02*
X129502819Y-109684094D01*
X129502819Y-109684094D02*
X129502819Y-109303142D01*
X129502819Y-109303142D02*
X129550438Y-109207904D01*
X129550438Y-109207904D02*
X129598057Y-109160285D01*
X129598057Y-109160285D02*
X129693295Y-109112666D01*
X129693295Y-109112666D02*
X129836152Y-109112666D01*
X129836152Y-109112666D02*
X129931390Y-109160285D01*
X129931390Y-109160285D02*
X129979009Y-109207904D01*
X129979009Y-109207904D02*
X130026628Y-109303142D01*
X130026628Y-109303142D02*
X130026628Y-109684094D01*
X130502819Y-108160285D02*
X130502819Y-108731713D01*
X130502819Y-108445999D02*
X129502819Y-108445999D01*
X129502819Y-108445999D02*
X129645676Y-108541237D01*
X129645676Y-108541237D02*
X129740914Y-108636475D01*
X129740914Y-108636475D02*
X129788533Y-108731713D01*
X130746667Y-102563200D02*
X130889524Y-102610819D01*
X130889524Y-102610819D02*
X131127619Y-102610819D01*
X131127619Y-102610819D02*
X131222857Y-102563200D01*
X131222857Y-102563200D02*
X131270476Y-102515580D01*
X131270476Y-102515580D02*
X131318095Y-102420342D01*
X131318095Y-102420342D02*
X131318095Y-102325104D01*
X131318095Y-102325104D02*
X131270476Y-102229866D01*
X131270476Y-102229866D02*
X131222857Y-102182247D01*
X131222857Y-102182247D02*
X131127619Y-102134628D01*
X131127619Y-102134628D02*
X130937143Y-102087009D01*
X130937143Y-102087009D02*
X130841905Y-102039390D01*
X130841905Y-102039390D02*
X130794286Y-101991771D01*
X130794286Y-101991771D02*
X130746667Y-101896533D01*
X130746667Y-101896533D02*
X130746667Y-101801295D01*
X130746667Y-101801295D02*
X130794286Y-101706057D01*
X130794286Y-101706057D02*
X130841905Y-101658438D01*
X130841905Y-101658438D02*
X130937143Y-101610819D01*
X130937143Y-101610819D02*
X131175238Y-101610819D01*
X131175238Y-101610819D02*
X131318095Y-101658438D01*
X131651429Y-101610819D02*
X131889524Y-102610819D01*
X131889524Y-102610819D02*
X132080000Y-101896533D01*
X132080000Y-101896533D02*
X132270476Y-102610819D01*
X132270476Y-102610819D02*
X132508572Y-101610819D01*
X133413333Y-102610819D02*
X132841905Y-102610819D01*
X133127619Y-102610819D02*
X133127619Y-101610819D01*
X133127619Y-101610819D02*
X133032381Y-101753676D01*
X133032381Y-101753676D02*
X132937143Y-101848914D01*
X132937143Y-101848914D02*
X132841905Y-101896533D01*
D12*
%TO.C,D2*%
X142521000Y-107481000D02*
X142521000Y-109766000D01*
X143991000Y-107481000D02*
X142521000Y-107481000D01*
X143991000Y-109766000D02*
X143991000Y-107481000D01*
%TO.C,SW2*%
X139802000Y-103156000D02*
X139802000Y-104356000D01*
X139802000Y-105956000D02*
X139802000Y-107156000D01*
X139802000Y-107156000D02*
X146202000Y-107156000D01*
X146202000Y-103156000D02*
X139802000Y-103156000D01*
X146202000Y-104356000D02*
X146202000Y-103156000D01*
X146202000Y-107156000D02*
X146202000Y-105956000D01*
%TO.C,D3*%
X152362000Y-107481000D02*
X152362000Y-109766000D01*
X153832000Y-107481000D02*
X152362000Y-107481000D01*
X153832000Y-109766000D02*
X153832000Y-107481000D01*
%TO.C,D1*%
X132244000Y-107481000D02*
X132244000Y-109766000D01*
X133714000Y-107481000D02*
X132244000Y-107481000D01*
X133714000Y-109766000D02*
X133714000Y-107481000D01*
%TO.C,SW3*%
X149962000Y-103156000D02*
X149962000Y-104356000D01*
X149962000Y-105956000D02*
X149962000Y-107156000D01*
X149962000Y-107156000D02*
X156362000Y-107156000D01*
X156362000Y-103156000D02*
X149962000Y-103156000D01*
X156362000Y-104356000D02*
X156362000Y-103156000D01*
X156362000Y-107156000D02*
X156362000Y-105956000D01*
%TO.C,BT1*%
X128198000Y-86574000D02*
X128198000Y-88124000D01*
X128198000Y-94274000D02*
X128198000Y-92724000D01*
X129748000Y-95424000D02*
X129748000Y-97424000D01*
X130748000Y-96424000D02*
X128748000Y-96424000D01*
X131398000Y-82074000D02*
X131398000Y-86574000D01*
X131398000Y-82074000D02*
X154098000Y-82074000D01*
X131398000Y-86574000D02*
X128198000Y-86574000D01*
X131398000Y-94274000D02*
X128198000Y-94274000D01*
X131398000Y-96974000D02*
X131398000Y-94274000D01*
X133198000Y-98774000D02*
X131398000Y-96974000D01*
X154098000Y-82074000D02*
X154098000Y-86574000D01*
X154098000Y-86574000D02*
X157298000Y-86574000D01*
X154098000Y-94274000D02*
X157298000Y-94274000D01*
X154098000Y-98774000D02*
X133198000Y-98774000D01*
X154098000Y-98774000D02*
X154098000Y-94274000D01*
X157298000Y-86574000D02*
X157298000Y-88124000D01*
X157298000Y-94274000D02*
X157298000Y-92724000D01*
%TO.C,R2*%
X141209500Y-108708742D02*
X141209500Y-109183258D01*
X142254500Y-108708742D02*
X142254500Y-109183258D01*
%TO.C,R3*%
X151025000Y-108708742D02*
X151025000Y-109183258D01*
X152070000Y-108708742D02*
X152070000Y-109183258D01*
%TO.C,R1*%
X130932500Y-108708742D02*
X130932500Y-109183258D01*
X131977500Y-108708742D02*
X131977500Y-109183258D01*
%TO.C,SW1*%
X128880000Y-103156000D02*
X128880000Y-104356000D01*
X128880000Y-105956000D02*
X128880000Y-107156000D01*
X128880000Y-107156000D02*
X135280000Y-107156000D01*
X135280000Y-103156000D02*
X128880000Y-103156000D01*
X135280000Y-104356000D02*
X135280000Y-103156000D01*
X135280000Y-107156000D02*
X135280000Y-105956000D01*
%TD*%
M02*
